<svg height="70" viewBox="0 0 238 70" width="238" xmlns="http://www.w3.org/2000/svg"><g fill="#fff"><path d="m29.0983623 26.2772747h-9.528524c-1.269949 0-2.202685-.3661057-2.798821-1.1026096-.6021112-.736345-.9008686-1.5302366-.9008686-2.3845366 0-.8525513.2987574-1.646443.9008686-2.3829469.596136-.7365038 1.528872-1.1067429 2.798821-1.1067429h15.9148856c5.8245446 0 8.8130383-3.2148321 8.9627235-9.65196794v-.34814237c0-.03084002-.0030643-.05929549-.0030643-.08997649v-9.20272138h-8.6255103c-.0753788-.00111279-.1453953-.00763052-.2219998-.00763052h-14.7930898c-12.46186246 0-19.3977847 5.82701246-20.8037832 17.4834219.76604473.3258866 5.82301241 2.5155271 7.05680406 4.0370204 1.38715379-.0782128 2.2933847.8635201 2.57069289 1.3602986.53056255.1039658.45441775.6280869.45441775.6280869s-.22690248 1.4377166-.65573433 1.8303702c.27807427.4700718-.10111785.679593-.10111785.679593s-.17634353.8369723.85720398 1.6737857c1.0085746.4708664 1.663696.2613452 2.8743531 1.7780693.7298874.2095214 1.0576013.5764219 1.0576013.5764219s.1265506.8361776.958322 1.4118048c.8071047 1.0981586.4288319 1.4642644 1.4623794 3.1913046.8812578.4177709 1.0831872.967486.6549682 1.6729909-.302128.2613453-1.8904451 3.4791978-4.3359664 3.1906689-1.0006076.6760955-2.7956036.9519069-4.11657111 1.5253086 2.88201351 1.4760281 6.45499931 2.2149164 10.72048961 2.2149164h9.524081c1.273013 0 2.2054427.370398 2.8032639 1.1083327.596136.7363448.8950467 1.5288058.8950467 2.3829467 0 .8542999-.2989107 1.6466021-.8950467 2.383106-.5978212.7379344-1.5302509 1.1038814-2.8032639 1.1038814h-19.27399195c-5.82607658 0-8.81870693 3.2184883-8.96394901 9.651332v.0726489h-.01149067v9.5553148h8.13355654c.2408444.0111279.47939078.0247992.73126628.0247992h18.37894521c13.8934468 0 20.8445367-7.4004885 20.8445367-22.2095733 0-14.0298181-6.5760344-21.0495758-19.7224344-21.0495758"/><path d="m76.5746504 27.3454546c.0364681 2.315163-.5652458 4.290901-1.80516 5.9272726-.8144534 1.1151571-1.96318 1.8969675-3.4462144 2.3454546-.8022972.2545469-1.7322189.3818182-2.7897926.3818182-1.9692754 0-3.5981575-.4848436-4.8866956-1.4545455-1.0697298-.8000039-1.9206384-1.8818112-2.5527515-3.2454545-.6321131-1.363643-.9967881-2.9363546-1.0940363-4.7181819l4.7590581-.3272727c.2188084 1.9272825.7354313 3.3212078 1.5498847 4.1818183.595645.6545486 1.2824498.9636365 2.0604351.9272726 1.0940419-.0363638 1.9692621-.5696919 2.6256872-1.6.3403685-.5212146.5105503-1.2545406.5105503-2.1999999 0-1.3939463-.6260257-2.7696903-1.8780957-4.1272728-.9967937-.933338-2.4858837-2.333324-4.467315-4.1999999-1.6653748-1.600008-2.838413-3.0363573-3.5191502-4.3090909-.7415172-1.4303102-1.1122703-2.9818098-1.1122703-4.6545455 0-3.01819694 1.0150124-5.30302256 3.0450678-6.85454547 1.2520701-.93333802 2.8080173-1.40000001 4.6678883-1.40000001 1.7869351 0 3.3185704.39999599 4.5949526 1.20000001.9846376.61818489 1.780845 1.48181262 2.388646 2.59090909.607801 1.10909645.978554 2.38484129 1.1122702 3.82727271l-4.8137598.87272727c-.1337162-1.35758253-.522703-2.41211744-1.1669721-3.16363634-.4619287-.55757855-1.1244218-.83636364-1.9874993-.83636364-.9117016 0-1.610662.40605654-2.096903 1.2181818-.3889925.65454871-.583486 1.46666188-.583486 2.43636358 0 1.5151592.6564153 3.0605983 1.9692654 4.6363637.4983969.5939424 1.239903 1.2969657 2.2245405 2.1090909 1.1669779.9697019 1.9388737 1.6484829 2.3157102 2.0363637 1.2277582 1.2363697 2.1819913 2.4545394 2.8627284 3.6545454.3160566.5575785.5713292 1.0787855.7658255 1.5636364.4740847 1.1757635.7232793 2.236359.7475915 3.1818182zm8.4423135 8.2363636h-4.9960992v-33.16363637h4.9960992zm17.1216691 0h-13.6572209v-33.16363637h4.9960992v28.19999997h8.6611217zm3.728985 0-5.9260303-33.16363637h5.2513743l4.157338 25.81818177 4.21204-25.81818177h5.251374l-6.035433 33.16363637zm15.252834 0v-33.16363637h14.25894v5h-9.262841v9.07272727h6.764792v5.0181819h-6.764792v9.0727272h9.262841v5zm25.618684-33.16363637c2.795885 0 4.844144.76968926 6.144838 2.3090909 1.154821 1.34546127 1.732224 3.21210923 1.732224 5.59999997v4.8181819c0 2.3515269-.893454 4.3333252-2.680389 5.9454545l3.719723 14.4909091h-5.415479l-3.063302-12.5272727c-.145872.0121211-.29782.0181817-.455849.0181817h-2.880962v12.509091h-4.9961v-33.16363637zm2.990366 7.99999997c0-1.92728236-.954233-2.89090906-2.862728-2.89090906h-3.026834v10.59999996h3.026834c.802297 0 1.479985-.2818153 2.033084-.8454545s.829644-1.23939.829644-2.0272727zm9.372245 25.1636364v-33.16363637h7.494149c1.981431 0 3.768339.5212069 5.360778 1.56363637 1.361474.88485289 2.333941 2.24847563 2.91743 4.09090907.316056.99394438.474082 2.16969023.474082 3.52727273 0 2.2181929-.589558 3.9999933-1.768692 5.3454546-.498397.5575785-1.081877.9878772-1.750458 1.290909 1.106198.4242446 2.048275 1.2605999 2.826261 2.509091.522708.8484891.905617 1.9393872 1.148738 3.2727272.12156.6909125.182339 1.4606019.182339 2.3090909 0 2.0969801-.395064 3.8787805-1.185206 5.3454546-.619957 1.1393996-1.495177 2.054542-2.625687 2.7454545-1.276383.7757615-2.540589 1.1636364-3.79266 1.1636364zm5.397245-4.9454546h2.096904c1.701843 0 2.880959-.8727185 3.537384-2.6181818.230964-.5939424.346445-1.2787839.346445-2.0545454 0-1.8545548-.358598-3.2060564-1.075803-4.0545455-.632113-.7757615-1.568112-1.1636363-2.808026-1.1636363h-2.096904zm0-14.6727272h2.096904c1.55597 0 2.601372-.7575682 3.136237-2.2727273.194497-.5696998.291743-1.2666626.291743-2.0909091 0-1.3818251-.334285-2.42423888-1.002867-3.12727269-.619956-.65454879-1.428319-.98181821-2.425113-.98181821h-2.096904zm21.388411 11.9999999-1.221674 7.6181819h-5.214907l5.634288-33.16363637h6.910662l5.561352 33.16363637h-5.251374l-1.185206-7.6181819zm2.625687-17.9454545-1.859862 13.0727273h3.719724zm20.458479 25.9818182c-2.212395 0-4.090472-.7696893-5.634287-2.3090909-1.543814-1.5394016-2.31571-3.4060495-2.31571-5.6v-18.16363633c0-2.19395042.777974-4.06362869 2.333944-5.60909095 1.555971-1.54546227 3.42797-2.31818182 5.616053-2.31818182 2.212396 0 4.087434.77574983 5.625171 2.32727274 1.537736 1.55152291 2.306593 3.41817093 2.306593 5.60000003v3.78181813h-5.196673v-3.87272725c0-.80000403-.282623-1.48181536-.847878-2.04545455-.565254-.56363918-1.249021-.84545454-2.051318-.84545454-.790142 0-1.46479.28181536-2.023967.84545454-.559177.56363919-.838761 1.24545052-.838761 2.04545455v18.19999995c0 .8000039.279584 1.4787852.838761 2.0363637s1.233825.8363636 2.023967.8363636c.802297 0 1.486064-.2787851 2.051318-.8363636.565255-.5575785.847878-1.2363598.847878-2.0363637v-4.5636363h5.196673v4.6181818c0 2.2060716-.777974 4.0757499-2.333944 5.6090909-1.555971 1.533341-3.421892 2.3-5.59782 2.3zm16.410545-10.8909091v10.4727273h-5.032567v-33.16363637h5.032567v11.81818187l6.090136-11.81818187h5.360778l-6.855961 13.56363637 8.022933 19.6h-5.889562l-5.251375-13.4363636z"/><path d="m76.7778472 42.3295879h4.2761241l-4.231581 27.3258428h-3.9197802l-2.3013861-14.906367-2.1677572 14.906367h-3.9049326l-4.5285342-27.3258428h4.2761239l2.138062 14.6367042 1.9598901-14.6367042h4.2761239l2.138062 14.6367042zm7.0823305 27.3258428v-27.3258428h11.6108638v4.1198503h-7.5426071v7.4756554h5.5084792v4.1348314h-5.5084792v7.4756554h7.5426071v4.1198503zm14.4319184 0v-27.3258428h6.1023849c1.613453 0 3.068509.429459 4.365209 1.2883895 1.108631.7290923 1.900498 1.8526765 2.375625 3.3707866.257361.8189803.386039 1.7877597.386039 2.906367 0 1.8277247-.480069 3.2958747-1.440222 4.4044944-.405838.459428-.880958.8139812-1.425375 1.0636704.900762.3495649 1.667883 1.0386965 2.301386 2.0674156.425635.6991298.737433 1.5979972.935403 2.6966295.098984.5692911.148476 1.2034921.148476 1.9026216 0 1.7278489-.321696 3.1959989-.965098 4.4044944-.504822.938831-1.217502 1.6928812-2.138061 2.2621723-1.039341.6392042-2.068769.9588015-3.088312.9588015zm4.3949049-4.0749064h1.70748c1.385787 0 2.345927-.7190939 2.880444-2.1573034.188072-.4893907.282106-1.0536798.282106-1.6928838 0-1.5280975-.292001-2.6416944-.876012-3.3408241-.514721-.639204-1.276892-.9588016-2.286538-.9588016h-1.70748zm0-12.0898876h1.70748c1.267006 0 2.118263-.6242135 2.553796-1.8726593.158376-.4694155.237563-1.0436919.237563-1.7228464 0-1.1385824-.272205-1.9975003-.816622-2.5767791-.504822-.5393285-1.163061-.8089886-1.974737-.8089886h-1.70748zm20.222502 9.8876405-.994792 6.2771535h-4.246429l4.587924-27.3258428h5.627261l4.528534 27.3258428h-4.276124l-.965098-6.2771535zm2.138062-14.786517-1.51446 10.7715356h3.028921zm16.614523-6.2621723c1.989595 0 3.573329.634201 4.751249 1.9026217 1.098732 1.2084956 1.64809 2.7465577 1.64809 4.6142324v3.9700373c0 1.7977618-.623596 3.3358238-1.870805 4.6142321-1.247208 1.2784086-2.756705 1.9176031-4.528534 1.9176031h-2.360776v10.3071162h-4.068257v-27.3258428zm2.435016 6.5917603c0-.7191047-.210341-1.2958778-.631026-1.730337s-.987365-.6516854-1.700056-.6516854h-2.46471v8.7340825h2.46471c.6533 0 1.205132-.2322076 1.655513-.6966293s.675569-1.0212203.675569-1.670412zm13.199563-6.5917603c1.989595 0 3.573328.634201 4.751248 1.9026217 1.098732 1.2084956 1.64809 2.7465577 1.64809 4.6142324v3.9700373c0 1.7977618-.623595 3.3358238-1.870805 4.6142321-1.247208 1.2784086-2.756705 1.9176031-4.528533 1.9176031h-2.360777v10.3071162h-4.068257v-27.3258428zm2.435015 6.5917603c0-.7191047-.21034-1.2958778-.631026-1.730337-.420685-.4344592-.987365-.6516854-1.700056-.6516854h-2.46471v8.7340825h2.46471c.6533 0 1.205132-.2322076 1.655514-.6966293.45038-.4644217.675568-1.0212203.675568-1.670412zm20.267045 13.9475656c.029695 1.9076251-.460272 3.5355738-1.469918 4.8838952-.663198.918856-1.59859 1.5630442-2.806206 1.9325842-.6533.2097388-1.410523.3146068-2.271691.3146068-1.603554 0-2.929931-.3994966-3.97917-1.1985019-.871067-.6591794-1.563951-1.5505563-2.078672-2.6741574-.514721-1.123601-.811671-2.4194683-.890859-3.8876403l3.875237-.2696629c.178173 1.5880228.598852 2.7365756 1.262051 3.4456928.485025.5393286 1.044281.7940075 1.677784.7640451.890864-.0299628 1.603544-.4694092 2.138062-1.3183523.277157-.4294652.415734-1.0337039.415734-1.8127341 0-1.1485698-.509764-2.2821415-1.529307-3.4007488-.811676-.7690428-2.024222-1.9225893-3.637676-3.4606743-1.356092-1.3183587-2.311281-2.5018676-2.865596-3.5505617-.603808-1.1785329-.905707-2.4569221-.905707-3.8352061 0-2.4869039.826511-4.3695318 2.479557-5.6479401 1.019545-.7690425 2.286532-1.153558 3.801-1.153558 1.455077 0 2.702268.3295846 3.741608.988764.801778.5093658 1.450119 1.2209693 1.945043 2.1348314.494924.9138623.796823 1.9650378.905707 3.153558l-3.919781.7191012c-.108883-1.1186074-.42563-1.9875124-.950249-2.6067416-.376143-.459428-.915603-.6891384-1.618395-.6891384-.742386 0-1.31154.3345784-1.70748 1.0037452-.316751.5393285-.475124 1.2084853-.475124 2.0074905 0 1.2484459.53451 2.5218413 1.603546 3.8202249.405838.4893908 1.009636 1.0686609 1.811414 1.7378277.950254.7990053 1.578798 1.3583005 1.885651 1.6779026.999747 1.0187317 1.776767 2.0224671 2.331082 3.011236.25736.459428.465226.888887.623601 1.2883895.386042.9687938.588957 1.8426928.608754 2.6217228z"/></g></svg>