<?xml version="1.0" encoding="UTF-8"?>
<svg width="202px" height="56px" viewBox="0 0 202 56" version="1.1" xmlns="http://www.w3.org/2000/svg" xmlns:xlink="http://www.w3.org/1999/xlink">
    <g stroke="none" stroke-width="1" fill="none" fill-rule="evenodd">
        <g transform="translate(-282.000000, -121.000000)">
            <g transform="translate(282.000000, 121.000000)">
                <g>
                    <path d="M49.2202713,10.2434538 L28.0321228,28.1172425 L45.8361868,49.4484626 C45.8140403,49.4672623 45.7918572,49.4860342 45.7696372,49.5047784 C34.03057,59.40756 16.4781688,57.8073334 6.5652518,45.9305722 C-3.34766522,34.053811 -1.86727804,16.3980032 9.87178912,6.49522158 C21.6108563,-3.40755999 39.1632575,-1.80733335 49.0761745,10.0694278 C49.1244772,10.1272998 49.1725095,10.1853089 49.2202713,10.2434538 Z" id="Path" fill="#FFAA00"></path>
                    <polygon id="Path" fill="#E30A6C" points="120 56 92.6849018 28.5683719 66 55.367115 66 0 120 0 120 56"></polygon>
                    <polygon id="Path-46" fill="#9CDD05" points="137 56 202 56 169.5 0"></polygon>
                </g>
            </g>
        </g>
    </g>
</svg>
